<svg xmlns="http://www.w3.org/2000/svg" xmlns:xlink="http://www.w3.org/1999/xlink" width="738.415" height="1180.029" viewBox="0 0 738.415 1180.029">
  <defs>
    <filter id="Path" x="0" y="0" width="738.415" height="1180.029" filterUnits="userSpaceOnUse">
      <feOffset dx="60" dy="60" input="SourceAlpha"/>
      <feGaussianBlur stdDeviation="49.5" result="blur"/>
      <feFlood flood-color="#17234d" flood-opacity="0.098"/>
      <feComposite operator="in" in2="blur"/>
      <feComposite in="SourceGraphic"/>
    </filter>
  </defs>
  <g id="Group_9281" data-name="Group 9281" transform="translate(88.5 88.5)">
    <g transform="matrix(1, 0, 0, 1, -88.5, -88.5)" filter="url(#Path)">
      <path id="Path-2" data-name="Path" d="M194.2,883.029H66.881c-.8-.15-1.6-.357-2.413-.441-2.459-.255-4.942-.338-7.382-.707a61.939,61.939,0,0,1-39.144-21.726A63.305,63.305,0,0,1,2.574,818.039q-.065-247.053-.027-494.108c0-.661.025-1.322-.007-1.981-.031-.632-.123-1.261-.192-1.933L0,319.742V262.274l2.446-.4V247.084L0,246.42V188.952l2.45-.213V158.323l-.4.206L0,155.759V126.53l2.546-3.017v-2.184q0-27.124.012-54.247c0-2.638.089-5.282.281-7.913A62.1,62.1,0,0,1,22.824,17.042,59.711,59.711,0,0,1,58.371.668,162.2,162.2,0,0,1,74.688.094Q200.769.029,326.851.046c17.173,0,34.353-.192,51.519.2,17.049.393,31.555,7.146,43.316,19.468,11.832,12.4,17.6,27.391,17.649,44.442.114,43.183.039,86.367.039,129.55v2.673h2.04V311.815l-2.04.347v3.294q0,251.09,0,502.18a62.618,62.618,0,0,1-6.119,28.045c-10.4,21.106-27.159,33.5-50.677,36.437-2.189.273-4.371.606-6.557.91h-129.8a6.914,6.914,0,0,0-1.367-.925,23.8,23.8,0,0,0-8.472-1.491c-9.816.017-19.632.087-29.446-.034a33.283,33.283,0,0,0-12.733,2.449" transform="translate(88.5 88.5)" fill="#fff"/>
    </g>
    <path id="Path-3" data-name="Path" d="M345.552,0c1.461.2,2.933.352,4.382.623Q373.191,4.966,381.546,27.1c1.812,4.811,1.905,9.844,1.905,14.89q0,255.861,0,511.722,0,118.766-.017,237.532a53.777,53.777,0,0,1-.459,9.136,39.547,39.547,0,0,1-32.112,32c-1.287.227-2.548.605-3.821.913H37.183c-1.355-.314-2.7-.691-4.066-.932A39.742,39.742,0,0,1,.9,799.159a21.091,21.091,0,0,0-.9-3.027V37.156c.258-2.46.258-2.46.412-3.5C2.9,16.886,16.176,4.01,32.837.9,34.771.544,36.725.3,38.67,0H80.315c3.439,1.024,4.776,3.474,4.716,6.9-.019,1.072-.005,2.146.054,3.216a21.381,21.381,0,0,0,7.828,15.7c4.423,3.754,9.619,5.131,15.369,5.127q84.213-.06,168.425-.027c.908,0,1.817-.013,2.722-.076A21.561,21.561,0,0,0,298.948,14.82a30.959,30.959,0,0,0,.843-7.578c.026-3.48,1.038-6.119,4.612-7.242Z" transform="translate(29.999 24.744)" fill="#e9f8f3"/>
    <text id="App_interface_here" data-name="App interface here" transform="translate(221.001 455.744)" fill="#00063a" font-size="43" font-family="Caveat" opacity="0.3"><tspan x="-140" y="0">App Interface Here</tspan></text>
  </g>
</svg>
