<svg id="playstore" xmlns="http://www.w3.org/2000/svg" width="26.715" height="30" viewBox="0 0 26.715 30">
  <path id="Path_200859" data-name="Path 200859" d="M1.053,18.855A2.744,2.744,0,0,0,.5,20.52V44.98a2.75,2.75,0,0,0,.48,1.564L14.289,32.662Zm0,0" transform="translate(-0.5 -17.751)" fill="#fff"/>
  <path id="Path_200860" data-name="Path 200860" d="M48.108,13.64l4.318-4.5L37.249.374A2.734,2.734,0,0,0,35.129.1Zm0,0" transform="translate(-33.1 0)" fill="#fff"/>
  <path id="Path_200861" data-name="Path 200861" d="M46,276.18l-13.11,13.675a2.721,2.721,0,0,0,.868.143,2.76,2.76,0,0,0,1.383-.375L50.428,280.8Zm0,0" transform="translate(-30.993 -259.997)" fill="#fff"/>
  <path id="Path_200862" data-name="Path 200862" d="M286.542,173.956l-4.437-2.562-4.668,4.869,4.777,4.983,4.328-2.5a2.766,2.766,0,0,0,0-4.79Zm0,0" transform="translate(-261.211 -161.352)" fill="#fff"/>
</svg>
