<svg xmlns="http://www.w3.org/2000/svg" width="383.451" height="833.289" viewBox="0 0 383.451 833.289">
  <path id="Path" d="M345.552,0c1.461.2,2.933.352,4.382.623Q373.191,4.966,381.546,27.1c1.812,4.811,1.905,9.844,1.905,14.89q0,255.861,0,511.722,0,118.766-.017,237.532a53.777,53.777,0,0,1-.459,9.136,39.547,39.547,0,0,1-32.112,32c-1.287.227-2.548.605-3.821.913H37.183c-1.355-.314-2.7-.691-4.066-.932A39.742,39.742,0,0,1,.9,799.159a21.091,21.091,0,0,0-.9-3.027V37.156c.258-2.46.258-2.46.412-3.5C2.9,16.886,16.176,4.01,32.837.9,34.771.544,36.725.3,38.67,0H80.315c3.439,1.024,4.776,3.474,4.716,6.9-.019,1.072-.005,2.146.054,3.216a21.381,21.381,0,0,0,7.828,15.7c4.423,3.754,9.619,5.131,15.369,5.127q84.213-.06,168.425-.027c.908,0,1.817-.013,2.722-.076A21.561,21.561,0,0,0,298.948,14.82a30.959,30.959,0,0,0,.843-7.578c.026-3.48,1.038-6.119,4.612-7.242Z" fill="#e9f8f3"/>
</svg>
