<svg xmlns="http://www.w3.org/2000/svg" width="40.6" height="40.6" viewBox="0 0 40.6 40.6">
  <g id="Group_3286" data-name="Group 3286" transform="translate(-940.624 -587.7)">
    <circle id="Ellipse_4" data-name="Ellipse 4" cx="20" cy="20" r="20" transform="translate(940.924 588)" fill="rgba(19,172,119,0.09)" stroke="#13ac77" stroke-width="0.6"/>
    <path id="twitter" d="M4.971,8.39A8.857,8.857,0,0,0,14.045-.383q0-.2-.009-.4a6.375,6.375,0,0,0,1.591-1.6,6.534,6.534,0,0,1-1.832.486A3.116,3.116,0,0,0,15.2-3.6a6.531,6.531,0,0,1-2.025.748,3.238,3.238,0,0,0-2.328-.974A3.138,3.138,0,0,0,7.655-.741a2.983,2.983,0,0,0,.083.7A9.162,9.162,0,0,1,1.164-3.26,3,3,0,0,0,.732-1.71,3.056,3.056,0,0,0,2.151.857,3.248,3.248,0,0,1,.707.471c0,.013,0,.026,0,.039A3.113,3.113,0,0,0,3.265,3.533a3.3,3.3,0,0,1-.841.108,3.275,3.275,0,0,1-.6-.056A3.181,3.181,0,0,0,4.8,5.727,6.539,6.539,0,0,1,.843,7.047,6.711,6.711,0,0,1,.082,7,9.255,9.255,0,0,0,4.971,8.39" transform="translate(952.841 605.825)" fill="#13ac77"/>
  </g>
</svg>
