<svg id="apple" xmlns="http://www.w3.org/2000/svg" width="25.928" height="30.355" viewBox="0 0 25.928 30.355">
  <g id="Group_54669" data-name="Group 54669" transform="translate(12.461)">
    <g id="Group_54668" data-name="Group 54668" transform="translate(0)">
      <path id="Path_200857" data-name="Path 200857" d="M253.715,0A7.123,7.123,0,0,0,249.1,2.5a6.187,6.187,0,0,0-1.51,4.807,6.012,6.012,0,0,0,4.654-2.377A6.679,6.679,0,0,0,253.715,0Z" transform="translate(-247.522)" fill="#fff"/>
    </g>
  </g>
  <g id="Group_54671" data-name="Group 54671" transform="translate(0 7.105)">
    <g id="Group_54670" data-name="Group 54670" transform="translate(0)">
      <path id="Path_200858" data-name="Path 200858" d="M62.385,122.919a7.684,7.684,0,0,0-5.8-3.079c-2.722,0-3.874,1.3-5.765,1.3-1.95,0-3.432-1.3-5.786-1.3a7.873,7.873,0,0,0-6.336,3.83c-2.2,3.4-1.819,9.8,1.738,15.253,1.273,1.95,2.973,4.143,5.2,4.162,1.979.019,2.536-1.269,5.217-1.282s3.189,1.3,5.164,1.279c2.225-.017,4.018-2.447,5.291-4.4a21.874,21.874,0,0,0,1.96-3.68A6.692,6.692,0,0,1,62.385,122.919Z" transform="translate(-37.336 -119.84)" fill="#fff"/>
    </g>
  </g>
</svg>
