<svg xmlns="http://www.w3.org/2000/svg" width="24.009" height="21.994" viewBox="0 0 24.009 21.994">
  <g id="fi-sr-eye-crossed" transform="translate(0.004 -1.003)" opacity="0.4">
    <g id="Group_54755" data-name="Group 54755">
      <path id="Path_201239" data-name="Path 201239" d="M23.271,9.419A15.866,15.866,0,0,0,19.9,5.51l2.8-2.8A1,1,0,1,0,21.286,1.3L18.241,4.345A12.054,12.054,0,0,0,12,2.655C5.809,2.655,2.281,6.893.729,9.419a4.908,4.908,0,0,0,0,5.162A15.866,15.866,0,0,0,4.1,18.49l-2.8,2.8A1,1,0,1,0,2.714,22.7l3.052-3.052A12.054,12.054,0,0,0,12,21.345c6.191,0,9.719-4.238,11.271-6.764a4.908,4.908,0,0,0,0-5.162ZM6,12a5.99,5.99,0,0,1,9.471-4.885L14.019,8.567A3.947,3.947,0,0,0,12,8a4,4,0,0,0-4,4,3.947,3.947,0,0,0,.567,2.019L7.115,15.471A5.961,5.961,0,0,1,6,12Zm6,6a5.961,5.961,0,0,1-3.471-1.115l1.452-1.452A3.947,3.947,0,0,0,12,16a4,4,0,0,0,4-4,3.947,3.947,0,0,0-.567-2.019l1.452-1.452A5.99,5.99,0,0,1,12,18Z" fill="#212121"/>
    </g>
  </g>
</svg>
