<svg xmlns="http://www.w3.org/2000/svg" width="70" height="70" viewBox="0 0 70 70">
  <g id="Group_7212" data-name="Group 7212" transform="translate(-280 -931)">
    <rect id="Rectangle_10741" data-name="Rectangle 10741" width="70" height="70" rx="12" transform="translate(280 931)" fill="#e9f8f3"/>
    <path id="Path_24921" data-name="Path 24921" d="M375.267-589.565a12.286,12.286,0,0,1-7.715-5.824c-.117-.193-.2-.39-.313-.555h0A11.838,11.838,0,0,1,366-601.294a11.876,11.876,0,0,1,1.238-5.354l3.149,2.331.022.017-.022-.017-3.149-2.331c.106-.154.235-.419.335-.588a12.311,12.311,0,0,1,7.784-5.811,12.618,12.618,0,0,1,9.049,1.192,11.577,11.577,0,0,1,2.15,1.5l-3.616,3.5a10.911,10.911,0,0,0-1.417-.869,7.388,7.388,0,0,0-7.127.44,7.183,7.183,0,0,0-2.938,3.728,2.071,2.071,0,0,1-.313-.192,2.118,2.118,0,0,0,.313.193,7.573,7.573,0,0,0-.4,2.255,7.539,7.539,0,0,0,.4,2.244h0a7.053,7.053,0,0,0,1.589,2.635,7.223,7.223,0,0,0,4.2,2.161,6.115,6.115,0,0,0,1.974.052,7.439,7.439,0,0,0,2.926-.823,2.7,2.7,0,0,1,.337-.179h0a3.448,3.448,0,0,1,.443-.324,3.851,3.851,0,0,0,.416-.363,4.848,4.848,0,0,0,1.618-2.929h-6.586v-4.674H389.92a7.7,7.7,0,0,1,.284,1.648c.041,3.411-.79,6.7-3.251,9.2-.259.262-.313.374-.543.426h0a8.9,8.9,0,0,1-2.062,1.537,12.529,12.529,0,0,1-6.039,1.5A12.148,12.148,0,0,1,375.267-589.565Z" transform="translate(-63.103 1567.293)" fill="#0a0a0a"/>
  </g>
</svg>
