<svg xmlns="http://www.w3.org/2000/svg" width="40.6" height="40.6"><g data-name="Group 3286" transform="translate(-940.624 -587.7)"><circle data-name="Ellipse 4" cx="20" cy="20" r="20" transform="translate(940.924 588)" fill="rgba(19,172,119,0.09)" stroke="#13ac77" stroke-width=".6"/><path d="M957.812 614.215a8.857 8.857 0 009.074-8.773q0-.2-.009-.4a6.375 6.375 0 001.591-1.6 6.534 6.534 0 01-1.832.486 3.116 3.116 0 001.405-1.703 6.531 6.531 0 01-2.025.748 3.238 3.238 0 00-2.328-.974 3.138 3.138 0 00-3.192 3.085 2.983 2.983 0 00.083.7 9.162 9.162 0 01-6.574-3.219 3 3 0 00-.432 1.55 3.056 3.056 0 001.419 2.567 3.248 3.248 0 01-1.444-.386v.039a3.113 3.113 0 002.558 3.023 3.3 3.3 0 01-.841.108 3.275 3.275 0 01-.6-.056 3.181 3.181 0 002.976 2.142 6.539 6.539 0 01-3.957 1.32 6.711 6.711 0 01-.761-.047 9.255 9.255 0 004.889 1.39" fill="#13ac77"/></g></svg>